<svg width="140" height="100" viewBox="0 0 140 100" fill="none" xmlns="http://www.w3.org/2000/svg">
<g opacity="0.4">
<circle cx="6.10725" cy="55.8847" r="1.5" transform="rotate(-8.44071 6.10725 55.8847)" fill="#181211" fill-opacity="0.4"/>
<circle cx="17.9774" cy="54.1229" r="1.5" transform="rotate(-8.44071 17.9774 54.1229)" fill="#181211" fill-opacity="0.4"/>
<circle cx="29.8475" cy="52.3612" r="1.5" transform="rotate(-8.44071 29.8475 52.3612)" fill="#181211" fill-opacity="0.4"/>
<circle cx="41.7171" cy="50.5995" r="1.5" transform="rotate(-8.44071 41.7171 50.5995)" fill="#181211" fill-opacity="0.4"/>
<circle cx="53.5872" cy="48.8397" r="1.5" transform="rotate(-8.44071 53.5872 48.8397)" fill="#181211" fill-opacity="0.4"/>
<circle cx="65.4574" cy="47.078" r="1.5" transform="rotate(-8.44071 65.4574 47.078)" fill="#181211" fill-opacity="0.4"/>
<circle cx="77.3275" cy="45.3163" r="1.5" transform="rotate(-8.44071 77.3275 45.3163)" fill="#181211" fill-opacity="0.4"/>
<circle cx="89.1976" cy="43.5546" r="1.5" transform="rotate(-8.44071 89.1976 43.5546)" fill="#181211" fill-opacity="0.4"/>
<circle cx="101.067" cy="41.7929" r="1.5" transform="rotate(-8.44071 101.067 41.7929)" fill="#181211" fill-opacity="0.4"/>
<circle cx="112.937" cy="40.0312" r="1.5" transform="rotate(-8.44071 112.937 40.0312)" fill="#181211" fill-opacity="0.4"/>
<circle cx="124.807" cy="38.2694" r="1.5" transform="rotate(-8.44071 124.807 38.2694)" fill="#181211" fill-opacity="0.4"/>
<circle cx="6.21614" cy="49.8026" r="1.5" transform="rotate(-8.44071 6.21614 49.8026)" fill="#181211" fill-opacity="0.4"/>
<circle cx="18.0863" cy="48.0409" r="1.5" transform="rotate(-8.44071 18.0863 48.0409)" fill="#181211" fill-opacity="0.4"/>
<circle cx="29.9564" cy="46.2792" r="1.5" transform="rotate(-8.44071 29.9564 46.2792)" fill="#181211" fill-opacity="0.4"/>
<circle cx="41.826" cy="44.5175" r="1.5" transform="rotate(-8.44071 41.826 44.5175)" fill="#181211" fill-opacity="0.4"/>
<circle cx="53.6961" cy="42.7577" r="1.5" transform="rotate(-8.44071 53.6961 42.7577)" fill="#181211" fill-opacity="0.4"/>
<circle cx="65.5662" cy="40.996" r="1.5" transform="rotate(-8.44071 65.5662 40.996)" fill="#181211" fill-opacity="0.4"/>
<circle cx="77.4364" cy="39.2343" r="1.5" transform="rotate(-8.44071 77.4364 39.2343)" fill="#181211" fill-opacity="0.4"/>
<circle cx="89.3065" cy="37.4726" r="1.5" transform="rotate(-8.44071 89.3065 37.4726)" fill="#181211" fill-opacity="0.4"/>
<circle cx="101.176" cy="35.7108" r="1.5" transform="rotate(-8.44071 101.176 35.7108)" fill="#181211" fill-opacity="0.4"/>
<circle cx="113.046" cy="33.9491" r="1.5" transform="rotate(-8.44071 113.046 33.9491)" fill="#181211" fill-opacity="0.4"/>
<circle cx="124.916" cy="32.1874" r="1.5" transform="rotate(-8.44071 124.916 32.1874)" fill="#181211" fill-opacity="0.4"/>
<circle cx="6.32454" cy="43.7226" r="1.5" transform="rotate(-8.44071 6.32454 43.7226)" fill="#181211" fill-opacity="0.4"/>
<circle cx="18.1947" cy="41.9608" r="1.5" transform="rotate(-8.44071 18.1947 41.9608)" fill="#181211" fill-opacity="0.4"/>
<circle cx="30.0648" cy="40.1991" r="1.5" transform="rotate(-8.44071 30.0648 40.1991)" fill="#181211" fill-opacity="0.4"/>
<circle cx="41.9344" cy="38.4374" r="1.5" transform="rotate(-8.44071 41.9344 38.4374)" fill="#181211" fill-opacity="0.4"/>
<circle cx="53.8045" cy="36.6776" r="1.5" transform="rotate(-8.44071 53.8045 36.6776)" fill="#181211" fill-opacity="0.4"/>
<circle cx="65.6746" cy="34.9159" r="1.5" transform="rotate(-8.44071 65.6746 34.9159)" fill="#181211" fill-opacity="0.4"/>
<circle cx="77.5448" cy="33.1542" r="1.5" transform="rotate(-8.44071 77.5448 33.1542)" fill="#181211" fill-opacity="0.4"/>
<circle cx="89.4149" cy="31.3925" r="1.5" transform="rotate(-8.44071 89.4149 31.3925)" fill="#181211" fill-opacity="0.4"/>
<circle cx="101.285" cy="29.6308" r="1.5" transform="rotate(-8.44071 101.285 29.6308)" fill="#181211" fill-opacity="0.4"/>
<circle cx="113.155" cy="27.869" r="1.5" transform="rotate(-8.44071 113.155 27.869)" fill="#181211" fill-opacity="0.4"/>
<circle cx="125.025" cy="26.1073" r="1.5" transform="rotate(-8.44071 125.025 26.1073)" fill="#181211" fill-opacity="0.4"/>
<circle cx="6.43294" cy="37.6405" r="1.5" transform="rotate(-8.44071 6.43294 37.6405)" fill="#181211" fill-opacity="0.4"/>
<circle cx="18.3031" cy="35.8788" r="1.5" transform="rotate(-8.44071 18.3031 35.8788)" fill="#181211" fill-opacity="0.4"/>
<circle cx="30.1732" cy="34.1171" r="1.5" transform="rotate(-8.44071 30.1732 34.1171)" fill="#181211" fill-opacity="0.4"/>
<circle cx="42.0428" cy="32.3554" r="1.5" transform="rotate(-8.44071 42.0428 32.3554)" fill="#181211" fill-opacity="0.4"/>
<circle cx="53.9129" cy="30.5956" r="1.5" transform="rotate(-8.44071 53.9129 30.5956)" fill="#181211" fill-opacity="0.4"/>
<circle cx="65.783" cy="28.8339" r="1.5" transform="rotate(-8.44071 65.783 28.8339)" fill="#181211" fill-opacity="0.4"/>
<circle cx="77.6532" cy="27.0722" r="1.5" transform="rotate(-8.44071 77.6532 27.0722)" fill="#181211" fill-opacity="0.4"/>
<circle cx="89.5233" cy="25.3104" r="1.5" transform="rotate(-8.44071 89.5233 25.3104)" fill="#181211" fill-opacity="0.4"/>
<circle cx="101.393" cy="23.5487" r="1.5" transform="rotate(-8.44071 101.393 23.5487)" fill="#181211" fill-opacity="0.4"/>
<circle cx="113.263" cy="21.787" r="1.5" transform="rotate(-8.44071 113.263 21.787)" fill="#181211" fill-opacity="0.4"/>
<circle cx="125.133" cy="20.0253" r="1.5" transform="rotate(-8.44071 125.133 20.0253)" fill="#181211" fill-opacity="0.4"/>
<circle cx="6.43294" cy="37.6405" r="1.5" transform="rotate(-8.44071 6.43294 37.6405)" fill="#181211" fill-opacity="0.4"/>
<circle cx="18.3031" cy="35.8788" r="1.5" transform="rotate(-8.44071 18.3031 35.8788)" fill="#181211" fill-opacity="0.4"/>
<circle cx="30.1732" cy="34.1171" r="1.5" transform="rotate(-8.44071 30.1732 34.1171)" fill="#181211" fill-opacity="0.4"/>
<circle cx="42.0428" cy="32.3554" r="1.5" transform="rotate(-8.44071 42.0428 32.3554)" fill="#181211" fill-opacity="0.4"/>
<circle cx="53.9129" cy="30.5956" r="1.5" transform="rotate(-8.44071 53.9129 30.5956)" fill="#181211" fill-opacity="0.4"/>
<circle cx="65.783" cy="28.8339" r="1.5" transform="rotate(-8.44071 65.783 28.8339)" fill="#181211" fill-opacity="0.4"/>
<circle cx="77.6532" cy="27.0722" r="1.5" transform="rotate(-8.44071 77.6532 27.0722)" fill="#181211" fill-opacity="0.4"/>
<circle cx="89.5233" cy="25.3104" r="1.5" transform="rotate(-8.44071 89.5233 25.3104)" fill="#181211" fill-opacity="0.4"/>
<circle cx="101.393" cy="23.5487" r="1.5" transform="rotate(-8.44071 101.393 23.5487)" fill="#181211" fill-opacity="0.4"/>
<circle cx="113.263" cy="21.787" r="1.5" transform="rotate(-8.44071 113.263 21.787)" fill="#181211" fill-opacity="0.4"/>
<circle cx="125.133" cy="20.0253" r="1.5" transform="rotate(-8.44071 125.133 20.0253)" fill="#181211" fill-opacity="0.4"/>
<circle cx="6.54133" cy="31.5585" r="1.5" transform="rotate(-8.44071 6.54133 31.5585)" fill="#181211" fill-opacity="0.4"/>
<circle cx="18.4115" cy="29.7968" r="1.5" transform="rotate(-8.44071 18.4115 29.7968)" fill="#181211" fill-opacity="0.4"/>
<circle cx="30.2816" cy="28.0351" r="1.5" transform="rotate(-8.44071 30.2816 28.0351)" fill="#181211" fill-opacity="0.4"/>
<circle cx="42.1512" cy="26.2733" r="1.5" transform="rotate(-8.44071 42.1512 26.2733)" fill="#181211" fill-opacity="0.4"/>
<circle cx="54.0213" cy="24.5136" r="1.5" transform="rotate(-8.44071 54.0213 24.5136)" fill="#181211" fill-opacity="0.4"/>
<circle cx="65.8914" cy="22.7519" r="1.5" transform="rotate(-8.44071 65.8914 22.7519)" fill="#181211" fill-opacity="0.4"/>
<circle cx="77.7616" cy="20.9901" r="1.5" transform="rotate(-8.44071 77.7616 20.9901)" fill="#181211" fill-opacity="0.4"/>
<circle cx="89.6317" cy="19.2284" r="1.5" transform="rotate(-8.44071 89.6317 19.2284)" fill="#181211" fill-opacity="0.4"/>
<circle cx="101.501" cy="17.4667" r="1.5" transform="rotate(-8.44071 101.501 17.4667)" fill="#181211" fill-opacity="0.4"/>
<circle cx="113.371" cy="15.705" r="1.5" transform="rotate(-8.44071 113.371 15.705)" fill="#181211" fill-opacity="0.4"/>
<circle cx="125.242" cy="13.9433" r="1.5" transform="rotate(-8.44071 125.242 13.9433)" fill="#181211" fill-opacity="0.4"/>
<circle cx="6.64973" cy="25.4765" r="1.5" transform="rotate(-8.44071 6.64973 25.4765)" fill="#181211" fill-opacity="0.4"/>
<circle cx="18.5198" cy="23.7147" r="1.5" transform="rotate(-8.44071 18.5198 23.7147)" fill="#181211" fill-opacity="0.4"/>
<circle cx="30.39" cy="21.953" r="1.5" transform="rotate(-8.44071 30.39 21.953)" fill="#181211" fill-opacity="0.4"/>
<circle cx="42.2596" cy="20.1913" r="1.5" transform="rotate(-8.44071 42.2596 20.1913)" fill="#181211" fill-opacity="0.4"/>
<circle cx="54.1297" cy="18.4315" r="1.5" transform="rotate(-8.44071 54.1297 18.4315)" fill="#181211" fill-opacity="0.4"/>
<circle cx="65.9998" cy="16.6698" r="1.5" transform="rotate(-8.44071 65.9998 16.6698)" fill="#181211" fill-opacity="0.4"/>
<circle cx="77.8699" cy="14.9081" r="1.5" transform="rotate(-8.44071 77.8699 14.9081)" fill="#181211" fill-opacity="0.4"/>
<circle cx="89.7401" cy="13.1464" r="1.5" transform="rotate(-8.44071 89.7401 13.1464)" fill="#181211" fill-opacity="0.4"/>
<circle cx="101.61" cy="11.3847" r="1.5" transform="rotate(-8.44071 101.61 11.3847)" fill="#181211" fill-opacity="0.4"/>
<circle cx="113.48" cy="9.62295" r="1.5" transform="rotate(-8.44071 113.48 9.62295)" fill="#181211" fill-opacity="0.4"/>
<circle cx="125.35" cy="7.86123" r="1.5" transform="rotate(-8.44071 125.35 7.86123)" fill="#181211" fill-opacity="0.4"/>
<circle cx="6.64973" cy="25.4765" r="1.5" transform="rotate(-8.44071 6.64973 25.4765)" fill="#181211" fill-opacity="0.4"/>
<circle cx="18.5198" cy="23.7147" r="1.5" transform="rotate(-8.44071 18.5198 23.7147)" fill="#181211" fill-opacity="0.4"/>
<circle cx="30.39" cy="21.953" r="1.5" transform="rotate(-8.44071 30.39 21.953)" fill="#181211" fill-opacity="0.4"/>
<circle cx="42.2596" cy="20.1913" r="1.5" transform="rotate(-8.44071 42.2596 20.1913)" fill="#181211" fill-opacity="0.4"/>
<circle cx="54.1297" cy="18.4315" r="1.5" transform="rotate(-8.44071 54.1297 18.4315)" fill="#181211" fill-opacity="0.4"/>
<circle cx="65.9998" cy="16.6698" r="1.5" transform="rotate(-8.44071 65.9998 16.6698)" fill="#181211" fill-opacity="0.4"/>
<circle cx="77.8699" cy="14.9081" r="1.5" transform="rotate(-8.44071 77.8699 14.9081)" fill="#181211" fill-opacity="0.4"/>
<circle cx="89.7401" cy="13.1464" r="1.5" transform="rotate(-8.44071 89.7401 13.1464)" fill="#181211" fill-opacity="0.4"/>
<circle cx="101.61" cy="11.3847" r="1.5" transform="rotate(-8.44071 101.61 11.3847)" fill="#181211" fill-opacity="0.4"/>
<circle cx="113.48" cy="9.62295" r="1.5" transform="rotate(-8.44071 113.48 9.62295)" fill="#181211" fill-opacity="0.4"/>
<circle cx="125.35" cy="7.86123" r="1.5" transform="rotate(-8.44071 125.35 7.86123)" fill="#181211" fill-opacity="0.4"/>
<circle cx="7.97737" cy="61.6737" r="1.5" transform="rotate(-8.44071 7.97737 61.6737)" fill="#181211" fill-opacity="0.4"/>
<circle cx="19.8475" cy="59.912" r="1.5" transform="rotate(-8.44071 19.8475 59.912)" fill="#181211" fill-opacity="0.4"/>
<circle cx="31.7176" cy="58.1503" r="1.5" transform="rotate(-8.44071 31.7176 58.1503)" fill="#181211" fill-opacity="0.4"/>
<circle cx="43.5872" cy="56.3886" r="1.5" transform="rotate(-8.44071 43.5872 56.3886)" fill="#181211" fill-opacity="0.4"/>
<circle cx="55.4573" cy="54.6288" r="1.5" transform="rotate(-8.44071 55.4573 54.6288)" fill="#181211" fill-opacity="0.4"/>
<circle cx="67.3275" cy="52.8671" r="1.5" transform="rotate(-8.44071 67.3275 52.8671)" fill="#181211" fill-opacity="0.4"/>
<circle cx="79.1976" cy="51.1054" r="1.5" transform="rotate(-8.44071 79.1976 51.1054)" fill="#181211" fill-opacity="0.4"/>
<circle cx="91.0677" cy="49.3437" r="1.5" transform="rotate(-8.44071 91.0677 49.3437)" fill="#181211" fill-opacity="0.4"/>
<circle cx="102.937" cy="47.5819" r="1.5" transform="rotate(-8.44071 102.937 47.5819)" fill="#181211" fill-opacity="0.4"/>
<circle cx="114.807" cy="45.8202" r="1.5" transform="rotate(-8.44071 114.807 45.8202)" fill="#181211" fill-opacity="0.4"/>
<circle cx="126.678" cy="44.0585" r="1.5" transform="rotate(-8.44071 126.678 44.0585)" fill="#181211" fill-opacity="0.4"/>
<circle cx="9.84749" cy="67.4628" r="1.5" transform="rotate(-8.44071 9.84749 67.4628)" fill="#181211" fill-opacity="0.4"/>
<circle cx="21.7176" cy="65.7011" r="1.5" transform="rotate(-8.44071 21.7176 65.7011)" fill="#181211" fill-opacity="0.4"/>
<circle cx="33.5877" cy="63.9394" r="1.5" transform="rotate(-8.44071 33.5877 63.9394)" fill="#181211" fill-opacity="0.4"/>
<circle cx="45.4573" cy="62.1776" r="1.5" transform="rotate(-8.44071 45.4573 62.1776)" fill="#181211" fill-opacity="0.4"/>
<circle cx="57.3275" cy="60.4179" r="1.5" transform="rotate(-8.44071 57.3275 60.4179)" fill="#181211" fill-opacity="0.4"/>
<circle cx="69.1976" cy="58.6562" r="1.5" transform="rotate(-8.44071 69.1976 58.6562)" fill="#181211" fill-opacity="0.4"/>
<circle cx="81.0677" cy="56.8944" r="1.5" transform="rotate(-8.44071 81.0677 56.8944)" fill="#181211" fill-opacity="0.4"/>
<circle cx="92.9378" cy="55.1327" r="1.5" transform="rotate(-8.44071 92.9378 55.1327)" fill="#181211" fill-opacity="0.4"/>
<circle cx="104.807" cy="53.371" r="1.5" transform="rotate(-8.44071 104.807 53.371)" fill="#181211" fill-opacity="0.4"/>
<circle cx="116.678" cy="51.6093" r="1.5" transform="rotate(-8.44071 116.678 51.6093)" fill="#181211" fill-opacity="0.4"/>
<circle cx="128.548" cy="49.8476" r="1.5" transform="rotate(-8.44071 128.548 49.8476)" fill="#181211" fill-opacity="0.4"/>
<circle cx="11.7171" cy="73.2499" r="1.5" transform="rotate(-8.44071 11.7171 73.2499)" fill="#181211" fill-opacity="0.4"/>
<circle cx="23.5872" cy="71.4882" r="1.5" transform="rotate(-8.44071 23.5872 71.4882)" fill="#181211" fill-opacity="0.4"/>
<circle cx="35.4573" cy="69.7265" r="1.5" transform="rotate(-8.44071 35.4573 69.7265)" fill="#181211" fill-opacity="0.4"/>
<circle cx="47.327" cy="67.9647" r="1.5" transform="rotate(-8.44071 47.327 67.9647)" fill="#181211" fill-opacity="0.4"/>
<circle cx="59.1971" cy="66.205" r="1.5" transform="rotate(-8.44071 59.1971 66.205)" fill="#181211" fill-opacity="0.4"/>
<circle cx="71.0672" cy="64.4433" r="1.5" transform="rotate(-8.44071 71.0672 64.4433)" fill="#181211" fill-opacity="0.4"/>
<circle cx="82.9373" cy="62.6815" r="1.5" transform="rotate(-8.44071 82.9373 62.6815)" fill="#181211" fill-opacity="0.4"/>
<circle cx="94.8074" cy="60.9198" r="1.5" transform="rotate(-8.44071 94.8074 60.9198)" fill="#181211" fill-opacity="0.4"/>
<circle cx="106.677" cy="59.1581" r="1.5" transform="rotate(-8.44071 106.677 59.1581)" fill="#181211" fill-opacity="0.4"/>
<circle cx="118.547" cy="57.3964" r="1.5" transform="rotate(-8.44071 118.547 57.3964)" fill="#181211" fill-opacity="0.4"/>
<circle cx="130.417" cy="55.6347" r="1.5" transform="rotate(-8.44071 130.417 55.6347)" fill="#181211" fill-opacity="0.4"/>
<circle cx="13.5872" cy="79.039" r="1.5" transform="rotate(-8.44071 13.5872 79.039)" fill="#181211" fill-opacity="0.4"/>
<circle cx="25.4573" cy="77.2772" r="1.5" transform="rotate(-8.44071 25.4573 77.2772)" fill="#181211" fill-opacity="0.4"/>
<circle cx="37.3275" cy="75.5155" r="1.5" transform="rotate(-8.44071 37.3275 75.5155)" fill="#181211" fill-opacity="0.4"/>
<circle cx="49.1971" cy="73.7538" r="1.5" transform="rotate(-8.44071 49.1971 73.7538)" fill="#181211" fill-opacity="0.4"/>
<circle cx="61.0672" cy="71.994" r="1.5" transform="rotate(-8.44071 61.0672 71.994)" fill="#181211" fill-opacity="0.4"/>
<circle cx="72.9373" cy="70.2323" r="1.5" transform="rotate(-8.44071 72.9373 70.2323)" fill="#181211" fill-opacity="0.4"/>
<circle cx="84.8074" cy="68.4706" r="1.5" transform="rotate(-8.44071 84.8074 68.4706)" fill="#181211" fill-opacity="0.4"/>
<circle cx="96.6776" cy="66.7089" r="1.5" transform="rotate(-8.44071 96.6776 66.7089)" fill="#181211" fill-opacity="0.4"/>
<circle cx="108.547" cy="64.9472" r="1.5" transform="rotate(-8.44071 108.547 64.9472)" fill="#181211" fill-opacity="0.4"/>
<circle cx="120.417" cy="63.1854" r="1.5" transform="rotate(-8.44071 120.417 63.1854)" fill="#181211" fill-opacity="0.4"/>
<circle cx="132.287" cy="61.4237" r="1.5" transform="rotate(-8.44071 132.287 61.4237)" fill="#181211" fill-opacity="0.4"/>
<circle cx="13.5872" cy="79.039" r="1.5" transform="rotate(-8.44071 13.5872 79.039)" fill="#181211" fill-opacity="0.4"/>
<circle cx="25.4573" cy="77.2772" r="1.5" transform="rotate(-8.44071 25.4573 77.2772)" fill="#181211" fill-opacity="0.4"/>
<circle cx="37.3275" cy="75.5155" r="1.5" transform="rotate(-8.44071 37.3275 75.5155)" fill="#181211" fill-opacity="0.4"/>
<circle cx="49.1971" cy="73.7538" r="1.5" transform="rotate(-8.44071 49.1971 73.7538)" fill="#181211" fill-opacity="0.4"/>
<circle cx="61.0672" cy="71.994" r="1.5" transform="rotate(-8.44071 61.0672 71.994)" fill="#181211" fill-opacity="0.4"/>
<circle cx="72.9373" cy="70.2323" r="1.5" transform="rotate(-8.44071 72.9373 70.2323)" fill="#181211" fill-opacity="0.4"/>
<circle cx="84.8074" cy="68.4706" r="1.5" transform="rotate(-8.44071 84.8074 68.4706)" fill="#181211" fill-opacity="0.4"/>
<circle cx="96.6776" cy="66.7089" r="1.5" transform="rotate(-8.44071 96.6776 66.7089)" fill="#181211" fill-opacity="0.4"/>
<circle cx="108.547" cy="64.9472" r="1.5" transform="rotate(-8.44071 108.547 64.9472)" fill="#181211" fill-opacity="0.4"/>
<circle cx="120.417" cy="63.1854" r="1.5" transform="rotate(-8.44071 120.417 63.1854)" fill="#181211" fill-opacity="0.4"/>
<circle cx="132.287" cy="61.4237" r="1.5" transform="rotate(-8.44071 132.287 61.4237)" fill="#181211" fill-opacity="0.4"/>
<circle cx="15.4569" cy="84.8261" r="1.5" transform="rotate(-8.44071 15.4569 84.8261)" fill="#181211" fill-opacity="0.4"/>
<circle cx="27.327" cy="83.0644" r="1.5" transform="rotate(-8.44071 27.327 83.0644)" fill="#181211" fill-opacity="0.4"/>
<circle cx="39.1971" cy="81.3026" r="1.5" transform="rotate(-8.44071 39.1971 81.3026)" fill="#181211" fill-opacity="0.4"/>
<circle cx="51.0667" cy="79.5409" r="1.5" transform="rotate(-8.44071 51.0667 79.5409)" fill="#181211" fill-opacity="0.4"/>
<circle cx="62.9368" cy="77.7812" r="1.5" transform="rotate(-8.44071 62.9368 77.7812)" fill="#181211" fill-opacity="0.4"/>
<circle cx="74.807" cy="76.0194" r="1.5" transform="rotate(-8.44071 74.807 76.0194)" fill="#181211" fill-opacity="0.4"/>
<circle cx="86.6771" cy="74.2577" r="1.5" transform="rotate(-8.44071 86.6771 74.2577)" fill="#181211" fill-opacity="0.4"/>
<circle cx="98.5472" cy="72.496" r="1.5" transform="rotate(-8.44071 98.5472 72.496)" fill="#181211" fill-opacity="0.4"/>
<circle cx="110.417" cy="70.7343" r="1.5" transform="rotate(-8.44071 110.417 70.7343)" fill="#181211" fill-opacity="0.4"/>
<circle cx="122.287" cy="68.9726" r="1.5" transform="rotate(-8.44071 122.287 68.9726)" fill="#181211" fill-opacity="0.4"/>
<circle cx="134.157" cy="67.2108" r="1.5" transform="rotate(-8.44071 134.157 67.2108)" fill="#181211" fill-opacity="0.4"/>
<circle cx="17.327" cy="90.6151" r="1.5" transform="rotate(-8.44071 17.327 90.6151)" fill="#181211" fill-opacity="0.4"/>
<circle cx="29.1971" cy="88.8534" r="1.5" transform="rotate(-8.44071 29.1971 88.8534)" fill="#181211" fill-opacity="0.4"/>
<circle cx="41.0672" cy="87.0917" r="1.5" transform="rotate(-8.44071 41.0672 87.0917)" fill="#181211" fill-opacity="0.4"/>
<circle cx="52.9368" cy="85.33" r="1.5" transform="rotate(-8.44071 52.9368 85.33)" fill="#181211" fill-opacity="0.4"/>
<circle cx="64.807" cy="83.5702" r="1.5" transform="rotate(-8.44071 64.807 83.5702)" fill="#181211" fill-opacity="0.4"/>
<circle cx="76.6771" cy="81.8085" r="1.5" transform="rotate(-8.44071 76.6771 81.8085)" fill="#181211" fill-opacity="0.4"/>
<circle cx="88.5472" cy="80.0468" r="1.5" transform="rotate(-8.44071 88.5472 80.0468)" fill="#181211" fill-opacity="0.4"/>
<circle cx="100.417" cy="78.2851" r="1.5" transform="rotate(-8.44071 100.417 78.2851)" fill="#181211" fill-opacity="0.4"/>
<circle cx="112.287" cy="76.5233" r="1.5" transform="rotate(-8.44071 112.287 76.5233)" fill="#181211" fill-opacity="0.4"/>
<circle cx="124.157" cy="74.7616" r="1.5" transform="rotate(-8.44071 124.157 74.7616)" fill="#181211" fill-opacity="0.4"/>
<circle cx="136.027" cy="72.9999" r="1.5" transform="rotate(-8.44071 136.027 72.9999)" fill="#181211" fill-opacity="0.4"/>
<circle cx="17.327" cy="90.6151" r="1.5" transform="rotate(-8.44071 17.327 90.6151)" fill="#181211" fill-opacity="0.4"/>
<circle cx="29.1971" cy="88.8534" r="1.5" transform="rotate(-8.44071 29.1971 88.8534)" fill="#181211" fill-opacity="0.4"/>
<circle cx="41.0672" cy="87.0917" r="1.5" transform="rotate(-8.44071 41.0672 87.0917)" fill="#181211" fill-opacity="0.4"/>
<circle cx="52.9368" cy="85.33" r="1.5" transform="rotate(-8.44071 52.9368 85.33)" fill="#181211" fill-opacity="0.4"/>
<circle cx="64.807" cy="83.5702" r="1.5" transform="rotate(-8.44071 64.807 83.5702)" fill="#181211" fill-opacity="0.4"/>
<circle cx="76.6771" cy="81.8085" r="1.5" transform="rotate(-8.44071 76.6771 81.8085)" fill="#181211" fill-opacity="0.4"/>
<circle cx="88.5472" cy="80.0468" r="1.5" transform="rotate(-8.44071 88.5472 80.0468)" fill="#181211" fill-opacity="0.4"/>
<circle cx="100.417" cy="78.2851" r="1.5" transform="rotate(-8.44071 100.417 78.2851)" fill="#181211" fill-opacity="0.4"/>
<circle cx="112.287" cy="76.5233" r="1.5" transform="rotate(-8.44071 112.287 76.5233)" fill="#181211" fill-opacity="0.4"/>
<circle cx="124.157" cy="74.7616" r="1.5" transform="rotate(-8.44071 124.157 74.7616)" fill="#181211" fill-opacity="0.4"/>
<circle cx="136.027" cy="72.9999" r="1.5" transform="rotate(-8.44071 136.027 72.9999)" fill="#181211" fill-opacity="0.4"/>
<circle cx="19.1966" cy="96.4022" r="1.5" transform="rotate(-8.44071 19.1966 96.4022)" fill="#181211" fill-opacity="0.4"/>
<circle cx="31.0667" cy="94.6405" r="1.5" transform="rotate(-8.44071 31.0667 94.6405)" fill="#181211" fill-opacity="0.4"/>
<circle cx="42.9368" cy="92.8788" r="1.5" transform="rotate(-8.44071 42.9368 92.8788)" fill="#181211" fill-opacity="0.4"/>
<circle cx="54.8065" cy="91.1171" r="1.5" transform="rotate(-8.44071 54.8065 91.1171)" fill="#181211" fill-opacity="0.4"/>
<circle cx="66.6766" cy="89.3573" r="1.5" transform="rotate(-8.44071 66.6766 89.3573)" fill="#181211" fill-opacity="0.4"/>
<circle cx="78.5467" cy="87.5956" r="1.5" transform="rotate(-8.44071 78.5467 87.5956)" fill="#181211" fill-opacity="0.4"/>
<circle cx="90.4168" cy="85.8339" r="1.5" transform="rotate(-8.44071 90.4168 85.8339)" fill="#181211" fill-opacity="0.4"/>
<circle cx="102.287" cy="84.0722" r="1.5" transform="rotate(-8.44071 102.287 84.0722)" fill="#181211" fill-opacity="0.4"/>
<circle cx="114.157" cy="82.3104" r="1.5" transform="rotate(-8.44071 114.157 82.3104)" fill="#181211" fill-opacity="0.4"/>
<circle cx="126.027" cy="80.5487" r="1.5" transform="rotate(-8.44071 126.027 80.5487)" fill="#181211" fill-opacity="0.4"/>
<circle cx="137.897" cy="78.787" r="1.5" transform="rotate(-8.44071 137.897 78.787)" fill="#181211" fill-opacity="0.4"/>
<circle cx="19.1966" cy="96.4022" r="1.5" transform="rotate(-8.44071 19.1966 96.4022)" fill="#181211" fill-opacity="0.4"/>
<circle cx="31.0667" cy="94.6405" r="1.5" transform="rotate(-8.44071 31.0667 94.6405)" fill="#181211" fill-opacity="0.4"/>
<circle cx="42.9368" cy="92.8788" r="1.5" transform="rotate(-8.44071 42.9368 92.8788)" fill="#181211" fill-opacity="0.4"/>
<circle cx="54.8065" cy="91.1171" r="1.5" transform="rotate(-8.44071 54.8065 91.1171)" fill="#181211" fill-opacity="0.4"/>
<circle cx="66.6766" cy="89.3573" r="1.5" transform="rotate(-8.44071 66.6766 89.3573)" fill="#181211" fill-opacity="0.4"/>
<circle cx="78.5467" cy="87.5956" r="1.5" transform="rotate(-8.44071 78.5467 87.5956)" fill="#181211" fill-opacity="0.4"/>
<circle cx="90.4168" cy="85.8339" r="1.5" transform="rotate(-8.44071 90.4168 85.8339)" fill="#181211" fill-opacity="0.4"/>
<circle cx="102.287" cy="84.0722" r="1.5" transform="rotate(-8.44071 102.287 84.0722)" fill="#181211" fill-opacity="0.4"/>
<circle cx="114.157" cy="82.3104" r="1.5" transform="rotate(-8.44071 114.157 82.3104)" fill="#181211" fill-opacity="0.4"/>
<circle cx="126.027" cy="80.5487" r="1.5" transform="rotate(-8.44071 126.027 80.5487)" fill="#181211" fill-opacity="0.4"/>
<circle cx="137.897" cy="78.787" r="1.5" transform="rotate(-8.44071 137.897 78.787)" fill="#181211" fill-opacity="0.4"/>
<circle cx="19.1966" cy="96.4022" r="1.5" transform="rotate(-8.44071 19.1966 96.4022)" fill="#181211" fill-opacity="0.4"/>
<circle cx="31.0667" cy="94.6405" r="1.5" transform="rotate(-8.44071 31.0667 94.6405)" fill="#181211" fill-opacity="0.4"/>
<circle cx="42.9368" cy="92.8788" r="1.5" transform="rotate(-8.44071 42.9368 92.8788)" fill="#181211" fill-opacity="0.4"/>
<circle cx="54.8065" cy="91.1171" r="1.5" transform="rotate(-8.44071 54.8065 91.1171)" fill="#181211" fill-opacity="0.4"/>
<circle cx="66.6766" cy="89.3573" r="1.5" transform="rotate(-8.44071 66.6766 89.3573)" fill="#181211" fill-opacity="0.4"/>
<circle cx="78.5467" cy="87.5956" r="1.5" transform="rotate(-8.44071 78.5467 87.5956)" fill="#181211" fill-opacity="0.4"/>
<circle cx="90.4168" cy="85.8339" r="1.5" transform="rotate(-8.44071 90.4168 85.8339)" fill="#181211" fill-opacity="0.4"/>
<circle cx="102.287" cy="84.0722" r="1.5" transform="rotate(-8.44071 102.287 84.0722)" fill="#181211" fill-opacity="0.4"/>
<circle cx="114.157" cy="82.3104" r="1.5" transform="rotate(-8.44071 114.157 82.3104)" fill="#181211" fill-opacity="0.4"/>
<circle cx="126.027" cy="80.5487" r="1.5" transform="rotate(-8.44071 126.027 80.5487)" fill="#181211" fill-opacity="0.4"/>
<circle cx="137.897" cy="78.787" r="1.5" transform="rotate(-8.44071 137.897 78.787)" fill="#181211" fill-opacity="0.4"/>
</g>
<g opacity="0.7">
<circle cx="6.50325" cy="19.3183" r="1.5" transform="rotate(-8.44071 6.50325 19.3183)" fill="#181211" fill-opacity="0.4"/>
<circle cx="18.3734" cy="17.5565" r="1.5" transform="rotate(-8.44071 18.3734 17.5565)" fill="#181211" fill-opacity="0.4"/>
<circle cx="30.2435" cy="15.7948" r="1.5" transform="rotate(-8.44071 30.2435 15.7948)" fill="#181211" fill-opacity="0.4"/>
<circle cx="42.1131" cy="14.0331" r="1.5" transform="rotate(-8.44071 42.1131 14.0331)" fill="#181211" fill-opacity="0.4"/>
<circle cx="53.9832" cy="12.2733" r="1.5" transform="rotate(-8.44071 53.9832 12.2733)" fill="#181211" fill-opacity="0.4"/>
<circle cx="65.8533" cy="10.5116" r="1.5" transform="rotate(-8.44071 65.8533 10.5116)" fill="#181211" fill-opacity="0.4"/>
<circle cx="77.7235" cy="8.7499" r="1.5" transform="rotate(-8.44071 77.7235 8.7499)" fill="#181211" fill-opacity="0.4"/>
<circle cx="89.5936" cy="6.98818" r="1.5" transform="rotate(-8.44071 89.5936 6.98818)" fill="#181211" fill-opacity="0.4"/>
<circle cx="101.463" cy="5.22646" r="1.5" transform="rotate(-8.44071 101.463 5.22646)" fill="#181211" fill-opacity="0.4"/>
<circle cx="113.333" cy="3.46475" r="1.5" transform="rotate(-8.44071 113.333 3.46475)" fill="#181211" fill-opacity="0.4"/>
<circle cx="125.203" cy="1.70303" r="1.5" transform="rotate(-8.44071 125.203 1.70303)" fill="#181211" fill-opacity="0.4"/>
</g>
</svg>
